<svg width="266" height="112" viewBox="0 0 266 112" fill="none" xmlns="http://www.w3.org/2000/svg">
<path d="M13.8167 81.7284C26.6609 92.9791 47.5439 101.925 73.0562 107.104C98.5684 112.284 127.203 113.391 154.284 110.246C181.364 107.101 205.292 99.8895 222.16 89.7881C239.028 79.6868 247.839 67.2929 247.155 54.6299L226.12 54.8632C226.688 65.3704 219.377 75.6544 205.381 84.0361C191.384 92.4178 171.53 98.4019 149.059 101.012C126.589 103.621 102.829 102.702 81.66 98.4042C60.4909 94.1064 43.163 86.6839 32.5054 77.3484L13.8167 81.7284Z" fill="#CEE2FF"/>
<path d="M237.116 48.1404L262.13 59.193H212.102L237.116 48.1404Z" fill="#CEE2FF"/>
</svg>
