<svg width="198" height="112" viewBox="0 0 198 112" fill="none" xmlns="http://www.w3.org/2000/svg">
<path d="M10.2846 81.7284C19.8453 92.9791 35.3898 101.925 54.3801 107.104C73.3705 112.284 94.6847 113.391 114.843 110.246C135.001 107.101 152.811 99.8895 165.367 89.7881C177.923 79.6868 184.482 67.2929 183.972 54.6299L168.315 54.8632C168.738 65.3704 163.295 75.6544 152.877 84.0361C142.459 92.4178 127.68 98.4019 110.954 101.012C94.2276 103.621 76.5419 102.702 60.7845 98.4042C45.0271 94.1064 32.1288 86.6839 24.1958 77.3484L10.2846 81.7284Z" fill="#4C80CE"/>
<path d="M176.5 48.1404L195.12 59.193H157.88L176.5 48.1404Z" fill="#4C80CE"/>
</svg>
