<svg width="52" height="52" viewBox="0 0 52 52" fill="none" xmlns="http://www.w3.org/2000/svg">
<path d="M42.2498 47.6666H30.3332C29.7586 47.6666 29.2075 47.4384 28.8011 47.032C28.3948 46.6257 28.1665 46.0746 28.1665 45.5V43.3334C28.1665 42.7587 28.3948 42.2076 28.8011 41.8012C29.2075 41.395 29.7586 41.1666 30.3332 41.1666H42.2498C43.1117 41.1666 43.9384 41.509 44.5479 42.1186C45.1574 42.7281 45.4998 43.5548 45.4998 44.4166C45.4998 45.2786 45.1574 46.1053 44.5479 46.7148C43.9384 47.3242 43.1117 47.6666 42.2498 47.6666Z" fill="#6D6060"/>
<path d="M23.8332 21.6666H36.8332V47.6666H17.3332C15.0347 47.6666 12.8302 46.7535 11.2049 45.1283C9.57959 43.503 8.6665 41.2985 8.6665 39V36.8334C8.6665 32.8109 10.2644 28.9532 13.1087 26.1089C15.953 23.2646 19.8108 21.6666 23.8332 21.6666Z" fill="#8B8282"/>
<path d="M26.0002 47.6666C25.4256 47.6666 24.8745 47.4384 24.4681 47.032C24.0618 46.6258 23.8335 46.0747 23.8335 45.5V43.3334H28.1668V45.5C28.1668 46.0747 27.9386 46.6258 27.5322 47.032C27.1259 47.4384 26.5748 47.6666 26.0002 47.6666Z" fill="#595858"/>
<path d="M34.6667 47.6666C34.0921 47.6666 33.541 47.4384 33.1346 47.032C32.7283 46.6258 32.5 46.0747 32.5 45.5V43.3334H36.8333V45.5C36.8333 46.0747 36.6051 46.6258 36.1987 47.032C35.7924 47.4384 35.2413 47.6666 34.6667 47.6666Z" fill="#595858"/>
<path d="M30.3335 30.3334C29.4799 30.3334 28.6346 30.1652 27.8461 29.8386C27.0574 29.5119 26.3409 29.0331 25.7372 28.4296C25.1337 27.826 24.6549 27.1094 24.3283 26.3209C24.0016 25.5322 23.8335 24.6869 23.8335 23.8334V19.5H36.8335V23.8334C36.8335 24.6869 36.6654 25.5322 36.3387 26.3209C36.0121 27.1094 35.5333 27.826 34.9298 28.4296C34.3261 29.0331 33.6096 29.5119 32.8209 29.8386C32.0324 30.1652 31.1871 30.3334 30.3335 30.3334Z" fill="#595858"/>
<path d="M28.1665 8.66667L21.6665 13V4.78205C21.6665 4.56778 21.7301 4.35832 21.8492 4.18015C21.9681 4.00201 22.1373 3.86315 22.3354 3.78116C22.5333 3.69918 22.7511 3.67775 22.9613 3.71957C23.1715 3.76139 23.3645 3.8646 23.516 4.01613L28.1665 8.66667Z" fill="#FF888B"/>
<path d="M32.5 8.66667L39 13V4.78205C39 4.56778 38.9364 4.35832 38.8174 4.18015C38.6983 4.00201 38.5292 3.86315 38.3311 3.78116C38.1332 3.69918 37.9154 3.67775 37.7052 3.71957C37.495 3.76139 37.302 3.8646 37.1505 4.01613L32.5 8.66667Z" fill="#FF888B"/>
<path d="M30.3332 23.8334C28.0347 23.8334 25.8302 22.9203 24.2049 21.2949C22.5796 19.6696 21.6665 17.4652 21.6665 15.1666V8.66667H38.9998V15.1666C38.9998 17.4652 38.0867 19.6696 36.4614 21.2949C34.836 22.9202 32.6317 23.8333 30.3332 23.8334Z" fill="#6D6060"/>
<path d="M26.5415 16.25C27.4389 16.25 28.1665 15.5224 28.1665 14.6251C28.1665 13.7276 27.4389 13 26.5415 13C25.6441 13 24.9165 13.7276 24.9165 14.6251C24.9165 15.5224 25.6441 16.25 26.5415 16.25Z" fill="#C7ECB5"/>
<path d="M34.6665 16.25C35.5639 16.25 36.2915 15.5224 36.2915 14.6251C36.2915 13.7276 35.5639 13 34.6665 13C33.7691 13 33.0415 13.7276 33.0415 14.6251C33.0415 15.5224 33.7691 16.25 34.6665 16.25Z" fill="#C7ECB5"/>
</svg>
