<svg xmlns="http://www.w3.org/2000/svg" class="avatar-svg" viewBox="0 0 48 47" fill="none">
    <path d="M39 43.0833H28C27.4696 43.0833 26.9609 42.877 26.5858 42.5097C26.2107 42.1425 26 41.6444 26 41.125V39.1667C26 38.6473 26.2107 38.1492 26.5858 37.7819C26.9609 37.4147 27.4696 37.2083 28 37.2083H39C39.7956 37.2083 40.5587 37.5178 41.1213 38.0687C41.6839 38.6196 42 39.3668 42 40.1458C42 40.9249 41.6839 41.6721 41.1213 42.223C40.5587 42.7738 39.7956 43.0833 39 43.0833Z" fill="#4B5661"/>
    <path d="M22 19.5833H34V43.0833H16C13.8783 43.0833 11.8434 42.258 10.3431 40.789C8.84285 39.32 8 37.3275 8 35.25V33.2917C8 29.656 9.475 26.1692 12.1005 23.5984C14.726 21.0276 18.287 19.5833 22 19.5833Z" fill="#4B5661"/>
    <path d="M24 43.0833C23.4696 43.0833 22.9609 42.877 22.5858 42.5097C22.2107 42.1425 22 41.6444 22 41.125V39.1667H26V41.125C26 41.6444 25.7893 42.1425 25.4142 42.5097C25.0391 42.877 24.5304 43.0833 24 43.0833Z" fill="white"/>
    <path d="M32 43.0833C31.4696 43.0833 30.9609 42.877 30.5858 42.5097C30.2107 42.1425 30 41.6444 30 41.125V39.1667H34V41.125C34 41.6444 33.7893 42.1425 33.4142 42.5097C33.0391 42.877 32.5304 43.0833 32 43.0833Z" fill="white"/>
    <path d="M28 27.4167C27.2121 27.4167 26.4318 27.2647 25.7039 26.9695C24.9759 26.6742 24.3145 26.2415 23.7573 25.696C23.2002 25.1504 22.7582 24.5027 22.4567 23.79C22.1552 23.0772 22 22.3132 22 21.5417V17.625H34V21.5417C34 22.3132 33.8448 23.0772 33.5433 23.79C33.2418 24.5027 32.7998 25.1504 32.2427 25.696C31.6855 26.2415 31.0241 26.6742 30.2961 26.9695C29.5682 27.2647 28.7879 27.4167 28 27.4167Z" fill="white"/>
    <path d="M26 7.83334L20 11.75V4.32224C20 4.12857 20.0587 3.93925 20.1686 3.77822C20.2784 3.6172 20.4346 3.4917 20.6174 3.41759C20.8001 3.34349 21.0012 3.32412 21.1952 3.36192C21.3892 3.39972 21.5674 3.49301 21.7072 3.62997L26 7.83334Z" fill="#FF888B"/>
    <path d="M30 7.83334L36 11.75V4.32224C36 4.12857 35.9413 3.93925 35.8314 3.77822C35.7215 3.6172 35.5654 3.4917 35.3826 3.41759C35.1999 3.34349 34.9988 3.32412 34.8048 3.36192C34.6108 3.39972 34.4326 3.49301 34.2928 3.62997L30 7.83334Z" fill="#FF888B"/>
    <path d="M28 21.5417C25.8783 21.5417 23.8434 20.7164 22.3431 19.2473C20.8429 17.7783 20 15.7859 20 13.7083V7.83334H36V13.7083C36 15.7859 35.1571 17.7783 33.6568 19.2473C32.1565 20.7163 30.1217 21.5416 28 21.5417Z" fill="#4B5661"/>
    <path d="M24.5 14.6875C25.3284 14.6875 26 14.0299 26 13.2188C26 12.4076 25.3284 11.75 24.5 11.75C23.6716 11.75 23 12.4076 23 13.2188C23 14.0299 23.6716 14.6875 24.5 14.6875Z" fill="white"/>
    <path d="M32 14.6875C32.8284 14.6875 33.5 14.0299 33.5 13.2188C33.5 12.4076 32.8284 11.75 32 11.75C31.1716 11.75 30.5 12.4076 30.5 13.2188C30.5 14.0299 31.1716 14.6875 32 14.6875Z" fill="white"/>
</svg>
