<svg class="list-svg"  viewBox="0 0 40 36" fill="none" xmlns="http://www.w3.org/2000/svg">
<path fill-rule="evenodd" clip-rule="evenodd" d="M2.99999 25.8143C1.34399 25.8143 0 27.0359 0 28.5411C0 30.0463 1.34399 31.2679 2.99999 31.2679C4.65599 31.2679 6 30.0463 6 28.5411C6 27.0359 4.65599 25.8143 2.99999 25.8143ZM10 31.2679H40V27.6321H10V31.2679ZM2.99999 14.9071C1.34399 14.9071 0 16.1287 0 17.6339C0 19.1391 1.34399 20.3607 2.99999 20.3607C4.65599 20.3607 6 19.1391 6 17.6339C6 16.1287 4.65599 14.9071 2.99999 14.9071ZM10 20.3607H40V16.725H10V20.3607ZM2.99999 4C1.34399 4 0 5.2216 0 6.72679C0 8.23197 1.34399 9.45357 2.99999 9.45357C4.65599 9.45357 6 8.23197 6 6.72679C6 5.2216 4.65599 4 2.99999 4ZM10 9.45357H40V5.81786H10V9.45357Z" fill="#4C80CE"/>
</svg>
