<svg class="table-svg" viewBox="0 0 51 50" fill="none" xmlns="http://www.w3.org/2000/svg">
<path d="M20 9V40M32 9V40M8 18.6875H44M8 30.3125H44M14.4 40H37.6C39.8402 40 40.9604 40 41.816 39.5776C42.5686 39.2062 43.1806 38.6133 43.564 37.8843C44 37.0554 44 35.9702 44 33.8V15.2C44 13.0298 44 11.9447 43.564 11.1158C43.1806 10.3866 42.5686 9.79385 41.816 9.42236C40.9604 9 39.8402 9 37.6 9H14.4C12.1598 9 11.0397 9 10.184 9.42236C9.43138 9.79385 8.81946 10.3866 8.43598 11.1158C8 11.9447 8 13.0298 8 15.2V33.8C8 35.9702 8 37.0554 8.43598 37.8843C8.81946 38.6133 9.43138 39.2062 10.184 39.5776C11.0397 40 12.1598 40 14.4 40Z" stroke="#4C80CE" stroke-width="3.33333" stroke-linecap="round" stroke-linejoin="round"/>
</svg>
